<svg width="20" height="17" viewBox="0 0 20 17" fill="none" xmlns="http://www.w3.org/2000/svg">
<path d="M9.96201 15.986H16.772C17.0372 16.0009 17.3018 15.9476 17.5405 15.8311C17.7793 15.7147 17.9842 15.5391 18.1358 15.321C18.2874 15.1029 18.3806 14.8497 18.4066 14.5853C18.4325 14.321 18.3903 14.0544 18.284 13.811C17.924 12.723 16.489 11.418 16.489 10.134C16.489 7.284 16.489 6.534 15.085 4.858C14.6301 4.31908 14.0669 3.88194 13.432 3.575L12.649 3.195C12.5172 3.11624 12.4035 3.01047 12.3154 2.88466C12.2274 2.75885 12.1669 2.61584 12.138 2.465C12.0597 1.95741 11.7913 1.49859 11.3873 1.18159C10.9832 0.864598 10.4736 0.713163 9.96201 0.758004C9.45962 0.727836 8.96402 0.886021 8.57201 1.20167C8.18 1.51731 7.91972 1.96775 7.84201 2.465C7.80682 2.62082 7.73779 2.76699 7.6398 2.89315C7.54182 3.0193 7.41727 3.12236 7.27501 3.195L6.49201 3.575C5.85744 3.88206 5.29458 4.31919 4.84001 4.858C3.43701 6.534 3.43701 7.284 3.43701 10.134C3.43701 11.418 2.06701 12.592 1.70701 13.745C1.49001 14.442 1.37001 15.986 3.18701 15.986H9.96201Z" stroke="#545454" stroke-width="1.5" stroke-linecap="round" stroke-linejoin="round"/>
</svg>
